<svg xmlns="http://www.w3.org/2000/svg" width="48" height="48" viewBox="0 0 48 48"><path fill="#ffffff" stroke="#1769aa" stroke-linecap="round" stroke-linejoin="round" d="m41.104 24.664l1.786-1.827a2.204 2.204 0 0 0 .002-3.042l-.002-.002a2.032 2.032 0 0 0-2.942-.016l-.015.016l-1.78 1.827a12.35 12.35 0 0 0-14.835 0l-1.714-1.8a2.044 2.044 0 0 0-2.96-.003l-.003.003a2.211 2.211 0 0 0 0 3.045l1.779 1.813a13.46 13.46 0 0 0-2.414 7.686v6.286a1.365 1.365 0 0 0 1.341 1.387h22.829a1.366 1.366 0 0 0 1.308-1.387v-6.286a13.443 13.443 0 0 0-2.38-7.7Zm-15.699 9.804a2.437 2.437 0 1 1 2.349-2.442v.013a2.39 2.39 0 0 1-2.349 2.43h0Zm10.741 0a2.437 2.437 0 1 1 2.335-2.456v.027a2.39 2.39 0 0 1-2.348 2.43h.013ZM5.953 11.722l5.37 5.552h1.628v-1.723l-5.35-5.53"/><path fill="#ffffff" stroke="#1769aa" stroke-linecap="round" stroke-linejoin="round" d="M5.494 8.71a.57.57 0 0 1 .824 0l1.283 1.312l-1.648 1.7l-1.283-1.313a.615.615 0 0 1 0-.848v-.002Zm24.164 8.476v-1.78H23.77a1.331 1.331 0 0 1-1.309-1.353v-6.09H10.688a1.313 1.313 0 0 0-1.24.92m-.068 9.586v14.528a1.331 1.331 0 0 0 1.308 1.353h5.58m6.194-26.387l7.196 7.443m-16.707 14.56h3.683"/><path fill="#ffffff" stroke="#1769aa" stroke-linecap="round" d="M12.95 26.245h4.437m-4.437-3.728h3.245m-3.245-3.729h3.867m6.213 0h1.283m-5.672-3.721h-3.957"/></svg>
